<svg width="28" height="27" viewBox="0 0 28 27" fill="none" xmlns="http://www.w3.org/2000/svg">
<path d="M13.7095 6.39612L11.5865 10.3024C11.2696 10.8856 10.4624 10.9609 10.0431 10.4465L8.75517 8.86667H7.33268V7.53333H9.38846L10.6997 9.14183L12.8894 5.11277C13.2428 4.46257 14.1762 4.46256 14.5295 5.11277L16.0804 7.96639L17.0549 6.47219C17.3478 6.02306 17.9581 5.91251 18.3899 6.23036L19.2593 6.87025C19.3739 6.95454 19.5123 7 19.6545 7H20.666V8.33333H19.6545C19.2279 8.33333 18.8125 8.19695 18.469 7.94409L17.9405 7.55511L16.8309 9.25641C16.4449 9.84834 15.5666 9.81316 15.2291 9.19224L13.7095 6.39612Z" fill="#121212"/>
<path fill-rule="evenodd" clip-rule="evenodd" d="M2.33268 3.66667C2.33268 1.64162 3.9743 0 5.99935 0H21.9993C24.0244 0 25.666 1.64162 25.666 3.66667V11.6667C25.666 12.8855 25.0713 13.9655 24.1562 14.6322C25.1116 15.2455 25.6875 16.0189 25.8838 16.9524L27.2859 24.0952C27.4417 24.9048 27.2081 25.5913 26.5849 26.1548C25.9617 26.7183 25.0826 27 23.9476 27C23.4802 27 23.0463 26.9405 22.6457 26.8214C22.245 26.7024 21.8778 26.5238 21.544 26.2857L18.5395 24.1429H9.4592L6.4547 26.2857C6.12086 26.5238 5.75365 26.7024 5.35305 26.8214C4.95245 26.9405 4.51846 27 4.05109 27C2.91606 27 2.03696 26.7183 1.4138 26.1548C0.790647 25.5913 0.556963 24.9048 0.712752 24.0952L2.11486 16.9524C2.31119 16.0189 2.88708 15.2455 3.84251 14.6322C2.92741 13.9655 2.33268 12.8855 2.33268 11.6667V3.66667ZM5.99935 2C5.07887 2 4.33268 2.74619 4.33268 3.66667V11.6667C4.33268 12.5871 5.07887 13.3333 5.99935 13.3333H21.9993C22.9198 13.3333 23.666 12.5871 23.666 11.6667V3.66667C23.666 2.74619 22.9198 2 21.9993 2H5.99935ZM21.6275 21.0119C21.3715 21.1944 21.0544 21.2857 20.676 21.2857C20.2977 21.2857 19.9805 21.1944 19.7246 21.0119C19.4687 20.8294 19.3407 20.6032 19.3407 20.3333C19.3407 20.0635 19.4687 19.8373 19.7246 19.6548C19.9805 19.4722 20.2977 19.381 20.676 19.381C21.0544 19.381 21.3715 19.4722 21.6275 19.6548C21.8834 19.8373 22.0114 20.0635 22.0114 20.3333C22.0114 20.6032 21.8834 20.8294 21.6275 21.0119ZM18.9568 18.1548C18.7008 18.3373 18.3837 18.4286 18.0054 18.4286C17.627 18.4286 17.3099 18.3373 17.0539 18.1548C16.798 17.9722 16.67 17.746 16.67 17.4762C16.67 17.2064 16.798 16.9802 17.0539 16.7976C17.3099 16.6151 17.627 16.5238 18.0054 16.5238C18.3837 16.5238 18.7008 16.6151 18.9568 16.7976C19.2127 16.9802 19.3407 17.2064 19.3407 17.4762C19.3407 17.746 19.2127 17.9722 18.9568 18.1548ZM10.3272 21.2857H8.32417V19.619H5.98733V18.1905H8.32417V16.5238H10.3272V18.1905H12.664V19.619H10.3272V21.2857Z" fill="#121212"/>
</svg>
