<svg width="34" height="34" viewBox="0 0 34 34" fill="none"
    xmlns="http://www.w3.org/2000/svg">
    <path d="M16.7855 0.504636C14.2641 0.504636 11.8859 1.06123 9.75238 2.07322H23.8187C21.6851 1.06123 19.2986 0.504636 16.7855 0.504636ZM11.5065 3.64179H7.09598C6.4382 4.12249 5.82259 4.64534 5.24071 5.21037H9.28856C9.96321 4.61161 10.7053 4.08875 11.5065 3.64179ZM19.9479 8.35596H30.8349C30.4976 7.81623 30.135 7.28494 29.7387 6.78738H19.9479V8.35596ZM7.77906 6.78738H3.8324C3.43605 7.28494 3.06499 7.81623 2.72767 8.35596H6.70806C7.02852 7.8078 7.39114 7.27651 7.77906 6.78738ZM19.9479 5.21037H28.3303C27.7485 4.64534 27.1244 4.12249 26.4666 3.64179H19.9479V5.21037ZM33.2805 17C33.2805 16.7386 33.2721 16.4771 33.2552 16.2157H27.5714C27.3437 15.6676 27.0907 15.1447 26.7955 14.6387H33.1119C33.036 14.1074 32.9348 13.5846 32.8083 13.0701H25.7161C25.2607 12.5051 24.7547 11.9822 24.215 11.5015H32.3445C32.1505 10.9618 31.9312 10.439 31.6951 9.93297H13.5978V17.7843H19.9479V25.644H2.72767C3.06499 26.1838 3.43605 26.7151 3.8324 27.2126H13.5894V28.7812H5.24071C5.82259 29.3547 6.4382 29.8775 7.09598 30.3498H13.5894V31.9268H9.75238C11.8859 32.9388 14.2641 33.4954 16.7855 33.4954C19.2986 33.4954 21.6851 32.9388 23.8187 31.9268H22.0393C22.832 31.4798 23.5741 30.957 24.2488 30.3498H26.4666C27.1244 29.8775 27.7485 29.3547 28.3303 28.7812H25.7414C26.1377 28.2921 26.4919 27.7608 26.8208 27.2126H29.7387C30.135 26.7151 30.4976 26.1838 30.8349 25.644H27.5798C27.7822 25.1296 27.9593 24.6068 28.0942 24.067H31.6951C31.9312 23.5526 32.1505 23.0382 32.3445 22.4985H28.3894C28.4568 21.984 28.4906 21.4696 28.4906 20.9467V20.9299H32.8083C32.9348 20.4155 33.036 19.8926 33.1119 19.3613H28.3894C28.3219 18.8216 28.2207 18.2987 28.0858 17.7843H33.2552C33.2721 17.5229 33.2805 17.2614 33.2805 17ZM7.77906 22.4985H1.22659C1.42055 23.0382 1.63138 23.5526 1.87594 24.067H9.28856C8.74042 23.5863 8.23444 23.0635 7.77906 22.4985ZM5.94066 19.3613H0.459189C0.535086 19.8926 0.627848 20.4155 0.754343 20.9299H6.70806C6.42134 20.4239 6.15991 19.901 5.94066 19.3613ZM5.02989 14.6387C5.02989 14.1074 5.06362 13.5846 5.12265 13.0701H0.754343C0.627848 13.5846 0.535086 14.1074 0.459189 14.6387H5.02989ZM5.94066 9.93297H1.87594C1.63138 10.439 1.42055 10.9618 1.22659 11.5015H5.42624C5.56117 10.9618 5.73826 10.439 5.94066 9.93297ZM5.12265 16.2157H0.307394C0.290528 16.4771 0.290527 16.7386 0.290527 17C0.290527 17.2614 0.290528 17.5229 0.307394 17.7843H5.42624C5.29131 17.2783 5.19012 16.747 5.12265 16.2157Z" fill="#0069AA"/>
</svg>
