<svg width="24" height="24" viewBox="0 0 24 24" fill="none" xmlns="http://www.w3.org/2000/svg">
<path fill-rule="evenodd" clip-rule="evenodd" d="M8.85355 3.85355C9.04882 3.65829 9.04882 3.34171 8.85355 3.14645C8.65829 2.95118 8.34171 2.95118 8.14645 3.14645L6.79289 4.5H6.5C5.39543 4.5 4.5 5.39543 4.5 6.5V6.79289L3.14645 8.14645C2.95118 8.34171 2.95118 8.65829 3.14645 8.85355C3.34171 9.04882 3.65829 9.04882 3.85355 8.85355L5.20711 7.5H7.09481C7.62852 10.4762 7.62853 13.5238 7.09483 16.5H5.20711L3.85355 15.1464C3.65829 14.9512 3.34171 14.9512 3.14645 15.1464C2.95118 15.3417 2.95118 15.6583 3.14645 15.8536L4.5 17.2071V17.5C4.5 18.6046 5.39543 19.5 6.5 19.5H6.79289L8.14645 20.8536C8.34171 21.0488 8.65829 21.0488 8.85355 20.8536C9.04882 20.6583 9.04882 20.3417 8.85355 20.1464L7.5 18.7929V16.9052C10.4762 16.3715 13.5238 16.3715 16.5 16.9052V18.7929L15.1464 20.1464C14.9512 20.3417 14.9512 20.6583 15.1464 20.8536C15.3417 21.0488 15.6583 21.0488 15.8536 20.8536L17.2071 19.5H17.5C18.6046 19.5 19.5 18.6046 19.5 17.5V17.2071L20.8536 15.8536C21.0488 15.6583 21.0488 15.3417 20.8536 15.1464C20.6583 14.9512 20.3417 14.9512 20.1464 15.1464L18.7929 16.5H16.9052C16.3715 13.5238 16.3715 10.4762 16.9052 7.5H18.7929L20.1464 8.85355C20.3417 9.04882 20.6583 9.04882 20.8536 8.85355C21.0488 8.65829 21.0488 8.34171 20.8536 8.14645L19.5 6.79289V6.5C19.5 5.39543 18.6046 4.5 17.5 4.5H17.2071L15.8536 3.14645C15.6583 2.95118 15.3417 2.95118 15.1464 3.14645C14.9512 3.34171 14.9512 3.65829 15.1464 3.85355L16.5 5.20711V7.09489C13.5238 7.62859 10.4762 7.62859 7.5 7.09489V5.20711L8.85355 3.85355Z" fill="#333333"/>
</svg>
