<svg width="40" height="40" viewBox="0 0 40 40" fill="none" xmlns="http://www.w3.org/2000/svg">
<mask id="mask0_9514_69462" style="mask-type:alpha" maskUnits="userSpaceOnUse" x="0" y="0" width="40" height="40">
<rect width="40" height="40" fill="#D9D9D9"/>
</mask>
<g mask="url(#mask0_9514_69462)">
<path d="M13.3053 29.7222H26.6944V26.9447H13.3053V29.7222ZM13.3053 22.7781H26.6944V20.0002H13.3053V22.7781ZM9.44442 36.6668C8.69442 36.6668 8.04387 36.3914 7.49275 35.8406C6.94192 35.2895 6.6665 34.6389 6.6665 33.8889V6.11141C6.6665 5.36141 6.94192 4.71086 7.49275 4.15975C8.04387 3.60891 8.69442 3.3335 9.44442 3.3335H23.9165L33.3332 12.7502V33.8889C33.3332 34.6389 33.0578 35.2895 32.5069 35.8406C31.9558 36.3914 31.3053 36.6668 30.5553 36.6668H9.44442ZM22.5278 14.0556V6.11141H9.44442V33.8889H30.5553V14.0556H22.5278Z" fill="#1C1B1F"/>
</g>
</svg>
