<svg width="48" height="48" viewBox="0 0 48 48" fill="none"
    xmlns="http://www.w3.org/2000/svg">
    <g filter="url(#filter0_b_595_8876)">
        <path d="M28.2802 27.5946L30.4202 29.7346V31.8746H25.0702V38.2946L24.0002 39.3646L22.9302 38.2946V31.8746H17.5802V29.7346L19.7202 27.5946V20.1046H18.6502V17.9646H29.3502V20.1046H28.2802V27.5946Z" fill="#1C1B1F"/>
        <path d="M30.4202 11.3774L29.4961 12.3304C28.7828 11.5948 27.9586 11.018 27.0237 10.6C26.0888 10.182 25.081 9.97306 24.0002 9.97306C22.9194 9.97306 21.9115 10.182 20.9766 10.6C20.0417 11.018 19.2176 11.5948 18.5043 12.3304L17.5802 11.3774C18.4016 10.5304 19.3608 9.8616 20.4578 9.37119C21.5549 8.88077 22.7356 8.63556 24.0002 8.63556C25.2647 8.63556 26.4455 8.88077 27.5425 9.37119C28.6395 9.8616 29.5988 10.5304 30.4202 11.3774ZM28.5882 13.2667L27.6641 14.2196C27.1886 13.7292 26.6374 13.3447 26.0105 13.066C25.3836 12.7874 24.7135 12.6481 24.0002 12.6481C23.2869 12.6481 22.6168 12.7874 21.9899 13.066C21.363 13.3447 20.8118 13.7292 20.3363 14.2196L19.4122 13.2667C19.9958 12.6648 20.6821 12.1883 21.4711 11.8372C22.2601 11.4861 23.1031 11.3106 24.0002 11.3106C24.8973 11.3106 25.7403 11.4861 26.5293 11.8372C27.3183 12.1883 28.0046 12.6648 28.5882 13.2667ZM26.7562 15.1559L25.8322 16.1088C25.5944 15.8636 25.3188 15.6714 25.0053 15.5321C24.6919 15.3927 24.3569 15.3231 24.0002 15.3231C23.6435 15.3231 23.3085 15.3927 22.995 15.5321C22.6816 15.6714 22.406 15.8636 22.1682 16.1088L21.2441 15.1559C21.59 14.7992 22.0007 14.515 22.4763 14.3032C22.9518 14.0915 23.4598 13.9856 24.0002 13.9856C24.5406 13.9856 25.0486 14.0915 25.5241 14.3032C25.9997 14.515 26.4104 14.7992 26.7562 15.1559ZM29.1881 19.3356L18.8123 19.3356L18.8123 17.9981L22.7032 17.9981C22.7032 17.6303 22.8302 17.3154 23.0842 17.0535C23.3382 16.7915 23.6435 16.6606 24.0002 16.6606C24.3569 16.6606 24.6622 16.7915 24.9162 17.0535C25.1702 17.3154 25.2972 17.6303 25.2972 17.9981L29.1881 17.9981L29.1881 19.3356Z" fill="#1C1B1F"/>
    </g>
    <defs>
        <filter id="filter0_b_595_8876" x="-16" y="-16" width="80" height="80" filterUnits="userSpaceOnUse" color-interpolation-filters="sRGB">
            <feFlood flood-opacity="0" result="BackgroundImageFix"/>
            <feGaussianBlur in="BackgroundImageFix" stdDeviation="8"/>
            <feComposite in2="SourceAlpha" operator="in" result="effect1_backgroundBlur_595_8876"/>
            <feBlend mode="normal" in="SourceGraphic" in2="effect1_backgroundBlur_595_8876" result="shape"/>
        </filter>
    </defs>
</svg>
