<svg width="48" height="58" viewBox="0 0 48 58" fill="none"
    xmlns="http://www.w3.org/2000/svg">
    <rect x="16.377" y="8.76367" width="16" height="33.5243" fill="white"/>
    <path d="M23.9982 57.9047L7.23633 41.1426H40.7601L23.9982 57.9047Z" fill="#FFA826"/>
    <path d="M24 0C30.7863 0.178288 36.4383 2.52632 40.956 7.0441C45.4737 11.5619 47.8217 17.214 48 24.0003C47.8217 30.7867 45.4737 36.4388 40.956 40.9566C36.4383 45.4744 30.7863 47.8224 24 48.0007C17.2137 47.8224 11.5617 45.4744 7.044 40.9566C2.52629 36.4388 0.178286 30.7867 0 24.0003C0.178286 17.214 2.52629 11.5619 7.044 7.0441C11.5617 2.52632 17.2137 0.178288 24 0ZM24 10.2859C23.0709 10.2859 22.3029 10.6253 21.696 11.3042C21.0891 11.983 20.8211 12.7865 20.892 13.7145L22.1246 27.429C22.1966 27.9295 22.4017 28.3313 22.74 28.6341C23.0783 28.937 23.4977 29.089 23.9983 29.0901C24.4989 29.0913 24.9183 28.9393 25.2566 28.6341C25.5949 28.329 25.8 27.9273 25.872 27.429L27.1046 13.7145C27.1766 12.7853 26.9086 11.9819 26.3006 11.3042C25.6926 10.6264 24.9246 10.287 23.9966 10.2859H24ZM24 37.7148C24.7863 37.6794 25.4383 37.4114 25.956 36.9108C26.4737 36.4102 26.7326 35.7674 26.7326 34.9822C26.7326 34.1971 26.4737 33.5451 25.956 33.0262C25.4383 32.5073 24.7863 32.2485 24 32.2496C23.2137 32.2508 22.5617 32.5096 22.044 33.0262C21.5263 33.5428 21.2674 34.1948 21.2674 34.9822C21.2674 35.7697 21.5263 36.4125 22.044 36.9108C22.5617 37.4091 23.2137 37.6771 24 37.7148Z" fill="#FFA826"/>
</svg>
