<svg width="48" height="48" viewBox="0 0 48 48" fill="none"
    xmlns="http://www.w3.org/2000/svg">
    <g filter="url(#filter0_b_595_8839)">
        <path fill-rule="evenodd" clip-rule="evenodd" d="M15.3824 15.2618C14.0009 15.6116 12.9884 16.8624 12.9884 18.341V27.5667C12.9884 28.2589 13.3229 28.883 13.8496 29.2716C13.5144 29.1412 13.1531 29.0702 12.7764 29.0702C11.0221 29.0702 9.59998 30.6109 9.59998 32.5114C9.59998 34.4119 11.0221 35.9525 12.7764 35.9525C14.1076 35.9525 15.2475 35.0654 15.72 33.8072L18.2984 34.2039C18.4378 35.798 19.4913 37.1172 21.4589 37.1172C23.1689 37.1172 24.5337 36.1209 24.9958 34.8136C25.3553 34.9347 25.7646 34.9996 26.2236 34.9996C27.3058 34.9996 28.1115 34.6387 28.6407 34.0322L31.6726 33.9239C32.0518 35.2855 33.1507 36.4821 35.2235 36.4821C36.9778 36.4821 38.4 35.4233 38.4 33.3057C38.4 31.1881 36.9778 29.8116 35.2235 29.8116C34.5503 29.8116 33.9799 29.8899 33.5034 30.0355C33.4557 29.9816 33.4027 29.9328 33.3452 29.8897L34.384 28.8509C34.5826 28.6524 34.6941 28.383 34.6941 28.1022V21.7929C34.6941 18.6668 32.4199 16.0053 29.332 15.5178L24.7414 14.7929C24.6709 14.7818 24.5995 14.7778 24.5282 14.7811L22.7394 14.8624L23.2412 13.8587C23.4617 13.4176 23.5766 12.9312 23.5766 12.4381V12.1292L26.6877 8.12906C26.9448 7.79862 26.7347 7.3147 26.3178 7.2768L22.0319 6.88717C21.6746 6.85469 21.3251 7.00536 21.1035 7.28748L16.3343 13.3574C15.8911 13.9214 15.5674 14.5694 15.3824 15.2618ZM15.6354 30.2764V29.7982L20.8272 30.6418L18.8119 30.8058L15.6354 30.2764ZM22.8352 15.4596C22.8352 15.4596 24.1918 15.3537 24.4234 15.3537C25.1646 15.3537 30.859 16.6769 29.7175 16.6769L22.3058 16.9419L22.8352 15.4596Z" fill="black"/>
    </g>
    <defs>
        <filter id="filter0_b_595_8839" x="-16" y="-16" width="80" height="80" filterUnits="userSpaceOnUse" color-interpolation-filters="sRGB">
            <feFlood flood-opacity="0" result="BackgroundImageFix"/>
            <feGaussianBlur in="BackgroundImageFix" stdDeviation="8"/>
            <feComposite in2="SourceAlpha" operator="in" result="effect1_backgroundBlur_595_8839"/>
            <feBlend mode="normal" in="SourceGraphic" in2="effect1_backgroundBlur_595_8839" result="shape"/>
        </filter>
    </defs>
</svg>
