<svg width="48" height="48" viewBox="0 0 48 48" fill="none"
    xmlns="http://www.w3.org/2000/svg">
    <g filter="url(#filter0_b_595_8823)">
        <path fill-rule="evenodd" clip-rule="evenodd" d="M12.2946 16.0004C12.2946 15.1291 12.7869 14.3325 13.5662 13.9429C16.6491 12.4014 20.1029 11.7567 23.5343 12.0821L28.2076 12.5253C29.8959 12.6855 31.3989 13.4298 32.5245 14.5471L26.1485 16.7975C24.7252 17.2998 23.1958 17.4238 21.7102 17.1571L13.3346 15.6667V16.2069L21.614 17.693C23.1924 17.9763 24.8174 17.8447 26.3297 17.3109L32.9277 14.9822C33.9845 16.2226 34.6173 17.8289 34.6173 19.5717V27.8339C34.6173 27.8489 34.617 27.8639 34.6164 27.8788C34.7937 27.849 34.9757 27.8335 35.1615 27.8335C36.9656 27.8335 38.4282 29.2961 38.4282 31.1003C38.4282 32.9045 36.9656 34.3671 35.1615 34.3671C33.6268 34.3671 32.3392 33.3088 31.9889 31.8822L29.2338 32.5308C29.2118 32.536 29.1895 32.5398 29.1671 32.5422C29.1708 32.6054 29.1726 32.6692 29.1726 32.7333C29.1726 34.5375 27.7101 36.0001 25.9059 36.0001C24.313 36.0001 22.9864 34.86 22.6975 33.3513C22.204 33.6507 21.6249 33.823 21.0055 33.823C19.9456 33.823 19.0036 33.3183 18.4068 32.536L16.0206 32.3869C15.6845 33.8335 14.3874 34.9114 12.8385 34.9114C11.0343 34.9114 9.57178 33.4488 9.57178 31.6446C9.57178 29.8404 11.0343 28.3778 12.8385 28.3778C12.8822 28.3778 12.9257 28.3787 12.969 28.3804C13.029 28.3102 13.1064 28.2555 13.1947 28.223C12.642 27.7247 12.2946 27.0032 12.2946 26.2005V16.0004ZM28.6276 29.5509L31.3498 28.7342V28.1897L28.6276 29.0064V29.5509Z" fill="#121212"/>
    </g>
    <defs>
        <filter id="filter0_b_595_8823" x="-16" y="-16" width="80" height="80" filterUnits="userSpaceOnUse" color-interpolation-filters="sRGB">
            <feFlood flood-opacity="0" result="BackgroundImageFix"/>
            <feGaussianBlur in="BackgroundImageFix" stdDeviation="8"/>
            <feComposite in2="SourceAlpha" operator="in" result="effect1_backgroundBlur_595_8823"/>
            <feBlend mode="normal" in="SourceGraphic" in2="effect1_backgroundBlur_595_8823" result="shape"/>
        </filter>
    </defs>
</svg>
