<svg width="24" height="24" viewBox="0 0 24 24" fill="none" xmlns="http://www.w3.org/2000/svg">
<mask id="mask0_3131_4498" style="mask-type:alpha" maskUnits="userSpaceOnUse" x="0" y="0" width="24" height="24">
<rect width="24" height="24" fill="#D9D9D9"/>
</mask>
<g mask="url(#mask0_3131_4498)">
<path d="M2.57153 13.7143V8.57143C2.57153 7.15127 3.7228 6 5.14296 6H12.8572C17.5715 6 21.4287 9.85714 21.4287 14.5714V16.2857H19.5687C19.3924 16.788 19.0642 17.2229 18.6295 17.5301C18.1948 17.8373 17.6752 18.0015 17.1429 18C16.6107 18.0015 16.0911 17.8373 15.6564 17.5301C15.2217 17.2229 14.8935 16.788 14.7172 16.2857H10.2858C9.74556 17.0042 8.99312 17.5348 8.13488 17.8023C7.27663 18.0698 6.356 18.0608 5.50315 17.7766C4.65031 17.4923 3.9084 16.9471 3.38232 16.2181C2.85624 15.4892 2.57261 14.6133 2.57153 13.7143ZM6.85724 11.1429C5.43439 11.1429 4.28582 12.2914 4.28582 13.7143C4.28582 15.1371 5.43439 16.2857 6.85724 16.2857C8.2801 16.2857 9.42867 15.1371 9.42867 13.7143C9.42867 12.2914 8.2801 11.1429 6.85724 11.1429ZM14.5715 10.2857V12H19.0715C18.7887 11.3743 18.4287 10.8 18.0001 10.2857H14.5715Z" fill="#303133"/>
</g>
</svg>
