<svg width="12" height="12" viewBox="0 0 12 12" fill="none" xmlns="http://www.w3.org/2000/svg">
<path d="M3.66251 10.8364C4.46553 11.2788 5.33015 11.5 6.25637 11.5C7.46302 11.5 8.54645 11.1491 9.50666 10.4472C10.4669 9.74536 11.1297 8.82019 11.4951 7.67169L10.6028 7.46752C10.2714 8.39482 9.7106 9.14559 8.92034 9.71984C8.13007 10.2941 7.24208 10.5812 6.25637 10.5812C5.46611 10.5812 4.7332 10.3898 4.05765 10.007C3.3821 9.62413 2.82764 9.10093 2.39426 8.43736H3.65614V7.51856H0.75V10.4281H1.66773V9.02436C2.19457 9.79002 2.8595 10.394 3.66251 10.8364Z" fill="white"/>
<path d="M1.17063 3.88167C0.958189 4.40913 0.826477 4.95785 0.775492 5.52784H1.69322C1.73571 5.07695 1.84618 4.64733 2.02462 4.23898C2.20307 3.83063 2.4325 3.4478 2.71292 3.09049L2.06286 2.43968C1.68048 2.87355 1.38306 3.35421 1.17063 3.88167Z" fill="white"/>
<path d="M2.71292 1.78886L3.35023 2.43968C3.70713 2.16744 4.09164 1.942 4.50377 1.76334C4.91589 1.58469 5.34714 1.46984 5.79751 1.41879V0.5C5.22818 0.542537 4.68009 0.672274 4.15324 0.889211C3.6264 1.10615 3.14629 1.40603 2.71292 1.78886Z" fill="white"/>
<path d="M8.00898 1.75696C8.42111 1.93136 8.80562 2.15893 9.16251 2.43968L9.81257 1.7761C9.3792 1.39327 8.89909 1.09551 8.37225 0.882831C7.8454 0.670147 7.29307 0.542537 6.71524 0.5V1.41879C7.1656 1.46984 7.59685 1.58256 8.00898 1.75696Z" fill="white"/>
<path d="M10.4817 4.23898C10.6559 4.64733 10.7685 5.07695 10.8195 5.52784H11.75C11.7075 4.94934 11.5758 4.39636 11.3549 3.86891C11.1339 3.34145 10.8365 2.86079 10.4626 2.42691L9.79983 3.09049C10.0802 3.4478 10.3076 3.83063 10.4817 4.23898Z" fill="white"/>
<path d="M6.12739 6.97222C5.93294 6.97222 5.76859 6.90509 5.63433 6.77083C5.50007 6.63657 5.43294 6.47222 5.43294 6.27778C5.43294 6.08333 5.50007 5.91898 5.63433 5.78472C5.76859 5.65046 5.93294 5.58333 6.12739 5.58333C6.32183 5.58333 6.48618 5.65046 6.62044 5.78472C6.7547 5.91898 6.82183 6.08333 6.82183 6.27778C6.82183 6.47222 6.7547 6.63657 6.62044 6.77083C6.48618 6.90509 6.32183 6.97222 6.12739 6.97222Z" fill="white"/>
<path fill-rule="evenodd" clip-rule="evenodd" d="M4.38867 7.52539V8.5H8.34961C8.50239 8.5 8.63317 8.4456 8.74197 8.33681C8.85077 8.22801 8.90516 8.09722 8.90516 7.94444V4.61111C8.90516 4.45833 8.85077 4.32755 8.74197 4.21875C8.63317 4.10995 8.50239 4.05556 8.34961 4.05556H7.47461L6.96072 3.5H5.29405L4.78017 4.05556H3.90516C3.75239 4.05556 3.6216 4.10995 3.5128 4.21875C3.40401 4.32755 3.34961 4.45833 3.34961 4.61111V7.02539H3.88867C4.16481 7.02539 4.38867 7.24925 4.38867 7.52539ZM6.12739 7.52778C6.47461 7.52778 6.76975 7.40625 7.0128 7.16319C7.25586 6.92014 7.37739 6.625 7.37739 6.27778C7.37739 5.93056 7.25586 5.63542 7.0128 5.39236C6.76975 5.14931 6.47461 5.02778 6.12739 5.02778C5.78016 5.02778 5.48503 5.14931 5.24197 5.39236C4.99891 5.63542 4.87739 5.93056 4.87739 6.27778C4.87739 6.625 4.99891 6.92014 5.24197 7.16319C5.48503 7.40625 5.78016 7.52778 6.12739 7.52778Z" fill="white"/>
</svg>
