<svg width="14" height="12" viewBox="0 0 14 12" fill="none"
    xmlns="http://www.w3.org/2000/svg">
    <path fill-rule="evenodd" clip-rule="evenodd" d="M7.99995 11C10.7614 11 12.9999 8.76142 12.9999 6C12.9999 3.23858 10.7614 1 7.99995 1C5.23853 1 2.99995 3.23858 2.99995 6C2.99995 8.76142 5.23853 11 7.99995 11ZM7.99995 12C11.3137 12 13.9999 9.31371 13.9999 6C13.9999 2.68629 11.3137 0 7.99995 0C4.68624 0 1.99995 2.68629 1.99995 6C1.99995 9.31371 4.68624 12 7.99995 12Z" fill="url(#paint0_angular_5471_15395)"/>
    <path fill-rule="evenodd" clip-rule="evenodd" d="M2.3476 5.33587L5.16671 7.10534L4.63509 7.95232L2.66295 6.71447L1.42511 8.6866L0.578125 8.15498L2.3476 5.33587Z" fill="white"/>
    <defs>
        <radialGradient id="paint0_angular_5471_15395" cx="0" cy="0" r="1" gradientUnits="userSpaceOnUse" gradientTransform="translate(7.28904 6) rotate(175.353) scale(6.17196 5.52723)">
            <stop stop-color="white" stop-opacity="0.3"/>
            <stop offset="0.215" stop-color="white"/>
            <stop offset="1" stop-color="white"/>
        </radialGradient>
    </defs>
</svg>
