<svg width="24" height="24" viewBox="0 0 24 24" fill="none" xmlns="http://www.w3.org/2000/svg">
<mask id="mask0_3237_14353" style="mask-type:alpha" maskUnits="userSpaceOnUse" x="0" y="0" width="24" height="24">
<rect width="24" height="24" fill="#D9D9D9"/>
</mask>
<g mask="url(#mask0_3237_14353)">
<path fill-rule="evenodd" clip-rule="evenodd" d="M13.8292 17.1779C14.2624 16.9613 14.7376 16.8417 15.2218 16.8275C15.7059 16.8132 16.1873 16.9047 16.6325 17.0954L16.8109 17.1788C17.4389 17.4925 19.4346 18.4714 19.4346 18.4714L18.8227 19.9688C18.8227 19.9688 16.8937 19.0829 16.065 18.6687C15.8572 18.5649 15.63 18.5056 15.398 18.4947C15.1659 18.4838 14.9341 18.5215 14.7175 18.6054L14.5742 18.6687L13.4775 19.2179C13.0441 19.4345 12.5687 19.554 12.0845 19.5681C11.6002 19.5822 11.1186 19.4906 10.6734 19.2996L10.4959 19.2179L9.39836 18.6687C9.19057 18.5649 8.96336 18.5056 8.7313 18.4947C8.49925 18.4838 8.26747 18.5215 8.05086 18.6054L7.90752 18.6687C7.0864 19.0796 5.33307 19.9688 5.33307 19.9688L4.61692 18.4714C4.61692 18.4714 6.3329 17.5927 7.16252 17.1779C7.59574 16.9613 8.07096 16.8417 8.55509 16.8275C9.03923 16.8132 9.52065 16.9047 9.96586 17.0954L10.1442 17.1788L11.2409 17.7271C11.4488 17.8311 11.6761 17.8905 11.9083 17.9014C12.1405 17.9123 12.3725 17.8745 12.5892 17.7904L12.7317 17.7271L13.8292 17.1779ZM12.82 4.03125C13.041 4.03125 13.253 4.11905 13.4093 4.27533C13.5656 4.43161 13.6534 4.64357 13.6534 4.86458V5.96458L16.4275 6.42625C16.8165 6.49133 17.1698 6.69225 17.4247 6.9933C17.6795 7.29435 17.8193 7.67601 17.8192 8.07042V10.9304L19.5359 11.5021C19.6726 11.5477 19.7983 11.6212 19.9052 11.7179C20.0121 11.8146 20.0977 11.9324 20.1567 12.064C20.2157 12.1955 20.2467 12.3378 20.2478 12.4819C20.249 12.626 20.2202 12.7688 20.1634 12.9012L18.3559 17.1179L16.8109 16.3446C16.348 16.1131 15.8376 15.9926 15.32 15.9926C14.8025 15.9926 14.2921 16.1131 13.8292 16.3446L12.7317 16.8937C12.5002 17.0095 12.245 17.0697 11.9863 17.0697C11.7275 17.0697 11.4723 17.0095 11.2409 16.8937L10.1442 16.3446C9.68131 16.1131 9.17089 15.9926 8.65336 15.9926C8.13583 15.9926 7.62541 16.1131 7.16252 16.3446L6.10419 16.8746L3.88919 12.9987C3.81273 12.8649 3.76692 12.7158 3.75505 12.5622C3.74318 12.4085 3.76555 12.2541 3.82055 12.1102C3.87556 11.9662 3.96182 11.8363 4.07312 11.7297C4.18442 11.6231 4.31799 11.5425 4.46419 11.4937L6.15336 10.9304V8.07042C6.15328 7.67601 6.29307 7.29435 6.54789 6.9933C6.8027 6.69225 7.15602 6.49133 7.54502 6.42625L10.32 5.96458V4.86458C10.32 4.64357 10.4078 4.43161 10.5641 4.27533C10.7204 4.11905 10.9323 4.03125 11.1534 4.03125H12.82ZM11.9867 7.37625L7.82002 8.07042V10.3754L11.4592 9.16208C11.8013 9.04803 12.1712 9.04803 12.5134 9.16208L16.1534 10.3754V8.07042L11.9867 7.37625Z" fill="#303133"/>
</g>
</svg>
