<svg width="24" height="25" viewBox="0 0 24 25" fill="none" xmlns="http://www.w3.org/2000/svg">
<mask id="mask0_8186_124728" style="mask-type:alpha" maskUnits="userSpaceOnUse" x="0" y="0" width="24" height="25">
<rect y="0.5" width="24" height="24" fill="#D9D9D9"/>
</mask>
<g mask="url(#mask0_8186_124728)">
<path fill-rule="evenodd" clip-rule="evenodd" d="M13.009 9.67477C12.3565 9.44174 11.6435 9.44174 10.991 9.67477L5.66366 11.5774C5.26567 11.7195 5 12.0965 5 12.5191V16.3174C5 16.3513 5.00171 16.385 5.00508 16.4183C5.04354 16.0375 5.29765 15.7081 5.66366 15.5774L10.991 13.6748C11.2261 13.5908 11.4691 13.5371 11.7143 13.5136V13.3002H12.2857V13.5136C12.5309 13.5371 12.7739 13.5908 13.009 13.6748L18.3363 15.5774C18.7024 15.7081 18.9565 16.0375 18.9949 16.4183C18.9983 16.385 19 16.3513 19 16.3174V12.5191C19 12.0965 18.7343 11.7195 18.3363 11.5774L13.009 9.67477ZM11.7143 11.6001V12.7002H12.2857V11.6001H11.7143ZM11.7143 9.99997V11.1001H12.2857V9.99997H11.7143Z" fill="url(#paint0_linear_8186_124728)" fill-opacity="0.5"/>
<path fill-rule="evenodd" clip-rule="evenodd" d="M12.2857 13.5136C12.5309 13.5371 12.7739 13.5908 13.009 13.6748L18.3363 15.5774C18.7343 15.7195 19 16.0965 19 16.5191V14.5191C19 14.0965 18.7343 13.7195 18.3363 13.5774L13.009 11.6748C12.3565 11.4417 11.6435 11.4417 10.991 11.6748L5.66366 13.5774C5.26567 13.7195 5 14.0965 5 14.5191V16.5191C5 16.0965 5.26567 15.7195 5.66366 15.5774L10.991 13.6748C11.2261 13.5908 11.4691 13.5371 11.7143 13.5136V13.3002H12.2857V13.5136ZM11.7143 11.6001V12.7002H12.2857V11.6001H11.7143Z" fill="url(#paint1_linear_8186_124728)" fill-opacity="0.5"/>
<path d="M10 14.5002L12 16.6002L14 14.5002H12.2857V13.5137C12.5309 13.5371 12.7739 13.5908 13.009 13.6748L18.3363 15.5774C18.7343 15.7196 19 16.0966 19 16.5192V20.3175C19 20.7144 18.7652 21.0738 18.4018 21.2332L13.0025 23.6019C12.3636 23.8823 11.6364 23.8823 10.9975 23.6019L5.59825 21.2332C5.23476 21.0738 5 20.7144 5 20.3175V16.5192C5 16.0966 5.26567 15.7196 5.66366 15.5774L10.991 13.6748C11.2261 13.5908 11.4691 13.5371 11.7143 13.5137V14.5002H10Z" fill="white"/>
<path d="M8.37101 2.17922C8.37101 2.08024 8.28086 2 8.16965 2H4.03339C3.92218 2 3.83203 2.08024 3.83203 2.17922V2.76569C3.83203 2.86467 3.92218 2.9449 4.03339 2.9449H5.56129L5.56161 3.51196H5.18671C5.0755 3.51196 4.98535 3.5922 4.98535 3.69118V6.29332C4.98535 6.3923 5.0755 6.47253 5.18671 6.47253H7.01745C7.12866 6.47253 7.21882 6.3923 7.21882 6.29332V5.96861H8.34903C7.74717 6.31108 7.23759 6.76694 6.85911 7.30494C6.38887 7.97336 6.13933 8.74281 6.13811 9.52756C6.13811 9.65286 6.19504 9.77303 6.29638 9.86163C6.39771 9.95023 6.53515 10 6.67846 10C6.82177 10 6.95921 9.95023 7.06055 9.86163C7.1618 9.7731 7.21873 9.65305 7.21882 9.52785C7.21975 8.91321 7.41657 8.31094 7.78719 7.78864C8.11614 7.32506 8.57046 6.94075 9.10858 6.66878L10.6194 8.44208H13.4144L14.9174 6.68019C15.4491 6.95343 15.8975 7.33681 16.2221 7.7978C16.5885 8.31807 16.7829 8.91688 16.7838 9.52784C16.7839 9.65304 16.8408 9.7731 16.942 9.86163C17.0434 9.95023 17.1808 10 17.3241 10C17.4674 10 17.6049 9.95023 17.7062 9.86163C17.8076 9.77303 17.8645 9.6526 17.8645 9.5273C17.8634 8.74675 17.6167 7.98151 17.1514 7.31538C16.7726 6.77308 16.2607 6.3135 15.6553 5.96861H16.7838V6.29332C16.7838 6.3923 16.8739 6.47253 16.9851 6.47253H18.8159C18.9271 6.47253 19.0172 6.3923 19.0172 6.29332V3.69117C19.0172 3.5922 18.9271 3.51196 18.8159 3.51196H18.4407L18.4404 2.9449H19.9681C20.0793 2.9449 20.1694 2.86467 20.1694 2.76569V2.17922C20.1694 2.08024 20.0793 2 19.9681 2H15.8318C15.7206 2 15.6305 2.08024 15.6305 2.17922V2.76569C15.6305 2.86467 15.7206 2.9449 15.8318 2.9449H17.3597L17.36 3.51196H16.9851C16.8739 3.51196 16.7838 3.5922 16.7838 3.69118V4.51981H15.2795L13.4579 3.26369C13.4484 3.25716 13.4407 3.24851 13.4326 3.24031C13.4137 3.221 13.3861 3.2096 13.3567 3.2096H10.677C10.6476 3.2096 10.62 3.221 10.6011 3.24032C10.593 3.24853 10.5853 3.25719 10.5758 3.26371L8.75476 4.51981H7.21882V3.69117C7.21882 3.5922 7.12866 3.51196 7.01745 3.51196H6.64231L6.642 2.9449H8.16965C8.28086 2.9449 8.37101 2.86467 8.37101 2.76569V2.17922Z" fill="white"/>
</g>
<defs>
<linearGradient id="paint0_linear_8186_124728" x1="12" y1="9" x2="12" y2="16" gradientUnits="userSpaceOnUse">
<stop stop-color="white" stop-opacity="0"/>
<stop offset="1" stop-color="white"/>
</linearGradient>
<linearGradient id="paint1_linear_8186_124728" x1="12" y1="11" x2="12" y2="18" gradientUnits="userSpaceOnUse">
<stop stop-color="white" stop-opacity="0"/>
<stop offset="1" stop-color="white"/>
</linearGradient>
</defs>
</svg>
