<svg width="160" height="34" viewBox="0 0 160 34" fill="none" xmlns="http://www.w3.org/2000/svg">
<g clip-path="url(#clip0_1945_36509)">
<path d="M23.3802 6.96092L24.661 7.29831C24.6624 7.3103 24.6674 7.32123 24.6758 7.3311C24.6878 7.3445 24.6942 7.36072 24.6949 7.37975C24.6956 9.32306 24.6973 11.2664 24.7002 13.2097C24.7002 13.2329 24.6871 13.2615 24.661 13.2953L24.1978 13.2065C19.251 12.0695 14.3974 10.6998 10.2121 7.78061C8.651 6.69191 7.56653 5.95436 6.95872 5.56796C4.94279 4.28711 2.86023 3.54145 0.533345 3.03271C0.497384 3.02495 0.478698 3.00239 0.477288 2.96502C0.45825 2.35897 0.210754 1.07707 1.23247 1.07495C3.84916 1.07072 6.46549 1.07072 9.08148 1.07495C9.11673 1.07495 9.14881 1.08447 9.17772 1.10351C10.3962 1.90593 11.664 2.6181 12.9811 3.24001C16.322 4.81595 19.7883 6.05625 23.3802 6.96092Z" fill="#F4313F"/>
<path d="M24.661 7.29836L23.3802 6.96097C19.0543 5.5056 14.8215 3.73188 11.0583 1.14058C11.0517 1.13612 11.0467 1.12965 11.0441 1.12214C11.0414 1.11462 11.0413 1.10646 11.0437 1.09886C11.0461 1.09126 11.0508 1.08463 11.0573 1.07995C11.0637 1.07527 11.0715 1.07279 11.0794 1.07289C15.3814 1.07218 19.6819 1.0743 23.981 1.07923C24.4647 1.07923 24.7058 1.32391 24.7044 1.81326C24.6988 3.61131 24.6974 5.40935 24.7002 7.2074C24.7002 7.22856 24.6871 7.25887 24.661 7.29836Z" fill="#F5D34D"/>
<path d="M24.1973 13.2066L24.6605 13.2954C24.662 13.3109 24.6669 13.3236 24.6754 13.3335C24.6876 13.3479 24.6944 13.3666 24.6944 13.3864L24.6648 19.2565L23.4146 19.1475C19.7276 18.6462 16.2922 17.8011 13.2176 16.0411C12.2029 15.4601 11.477 15.0501 11.0398 14.8111C7.89322 13.0945 4.05386 12.7105 0.538151 13.1072C0.495139 13.1121 0.473633 13.0927 0.473633 13.049V4.85518C0.473633 4.81428 0.494081 4.79665 0.534978 4.8023C3.14179 5.16614 5.56493 6.01545 7.80438 7.35023C8.68648 7.8759 9.57175 8.38781 10.4613 8.89761C14.6676 11.3123 19.4578 12.5445 24.1973 13.2066Z" fill="#5386D9"/>
<path d="M23.4146 19.1476L24.6648 19.2565C24.6613 19.2939 24.6708 19.3165 24.6933 19.3242C24.6947 21.0673 24.6947 22.8103 24.6933 24.5534C24.6933 25.0568 24.3411 25.188 23.8832 25.1816C21.148 25.1404 18.2024 24.8284 15.7644 23.7506C14.0796 23.0049 12.7892 22.4412 11.0768 22.2603C7.37602 21.8711 3.49118 22.7638 0.551901 25.0928C0.499723 25.1337 0.473633 25.121 0.473633 25.0547V14.8725C0.473633 14.8238 0.497606 14.7956 0.545554 14.7879C3.50281 14.3066 6.66632 14.3912 9.51464 15.2511C11.5094 15.854 13.3297 16.9836 15.3139 17.6616C16.4287 18.0416 17.5657 18.3445 18.7249 18.5701C20.2677 18.8698 21.8309 19.0623 23.4146 19.1476Z" fill="#642341"/>
<path d="M3.26264 28.1486H0.0161588C0.0118732 28.1486 0.00776339 28.1469 0.00473297 28.1439C0.00170255 28.1409 0 28.1368 0 28.1325V26.8213C0 26.817 0.00170255 26.8129 0.00473297 26.8099C0.00776339 26.8069 0.0118732 26.8052 0.0161588 26.8052H7.96494C7.96772 26.8052 7.97045 26.8059 7.97287 26.8073C7.97529 26.8086 7.97732 26.8106 7.97875 26.813C7.98019 26.8154 7.98099 26.8181 7.98107 26.8209C7.98115 26.8236 7.98051 26.8264 7.97922 26.8289L7.27235 28.14C7.27099 28.1426 7.26893 28.1448 7.26642 28.1463C7.2639 28.1478 7.26102 28.1486 7.25807 28.1486H4.82631C4.82203 28.1486 4.81792 28.1503 4.81489 28.1534C4.81186 28.1564 4.81016 28.1605 4.81016 28.1648V33.4898C4.81016 33.4941 4.80845 33.4982 4.80542 33.5012C4.80239 33.5042 4.79828 33.5059 4.794 33.5059L3.29496 33.4984C3.29067 33.4984 3.28656 33.4967 3.28353 33.4937C3.2805 33.4907 3.2788 33.4866 3.2788 33.4823V28.1648C3.2788 28.1605 3.27709 28.1564 3.27406 28.1534C3.27103 28.1503 3.26692 28.1486 3.26264 28.1486Z" fill="#231816"/>
<path d="M9.81441 26.8049H8.45028C8.43783 26.8049 8.42773 26.815 8.42773 26.8275V33.4715C8.42773 33.484 8.43783 33.4941 8.45028 33.4941H9.81441C9.82687 33.4941 9.83696 33.484 9.83696 33.4715V26.8275C9.83696 26.815 9.82687 26.8049 9.81441 26.8049Z" fill="#231816"/>
<path d="M14.7044 28.1217C13.8862 28.1194 13.0685 28.1191 12.2513 28.1209C12.2463 28.1209 12.2415 28.1229 12.238 28.1264C12.2344 28.1299 12.2325 28.1347 12.2325 28.1397V33.4752C12.2325 33.4877 12.2262 33.494 12.2137 33.494H10.842C10.837 33.494 10.8323 33.492 10.8287 33.4885C10.8252 33.485 10.8232 33.4802 10.8232 33.4752V26.824C10.8232 26.819 10.8253 26.8141 10.8289 26.8105C10.8324 26.8069 10.8373 26.8049 10.8424 26.8049C12.2454 26.8046 13.6507 26.8046 15.0584 26.8049C15.3085 26.8049 15.5086 26.8212 15.659 26.8537C16.9885 27.1405 17.6736 28.1145 17.4846 29.464C17.3425 30.4786 16.6473 31.1588 15.6755 31.4102C15.5627 31.4395 15.4311 31.4543 15.2805 31.4546C14.7815 31.4558 14.2843 31.4559 13.789 31.4549C13.7834 31.4549 13.7778 31.4535 13.7729 31.4507C13.768 31.448 13.7638 31.444 13.7608 31.4392L12.9427 30.1051C12.9414 30.1029 12.9408 30.1004 12.9407 30.0979C12.9407 30.0954 12.9413 30.0929 12.9426 30.0907C12.9438 30.0885 12.9456 30.0867 12.9477 30.0855C12.9498 30.0842 12.9523 30.0836 12.9547 30.0837C13.6232 30.0834 14.2929 30.0834 14.9641 30.0837C15.0262 30.0837 15.0825 30.0743 15.1328 30.0555C15.6785 29.8499 15.9964 29.5143 15.9543 28.9187C15.9062 28.243 15.2388 28.1232 14.7044 28.1217Z" fill="#231816"/>
<path d="M20.842 33.4556C19.6628 33.2482 18.7158 32.406 18.3798 31.2565C18.2466 30.8 18.1802 30.387 18.1807 30.0175C18.1809 29.7697 18.2254 29.4552 18.3141 29.0739C18.6192 27.7616 19.738 27.0457 20.998 26.8511C21.1771 26.8235 21.427 26.809 21.7477 26.8075C22.7373 26.8032 23.7274 26.8028 24.718 26.8063C24.721 26.8064 24.7239 26.8071 24.7265 26.8085C24.7291 26.8099 24.7314 26.812 24.733 26.8144C24.7346 26.8169 24.7356 26.8197 24.7359 26.8226C24.7362 26.8255 24.7357 26.8285 24.7345 26.8311L24.1892 28.1378C24.1837 28.1513 24.1736 28.1581 24.1588 28.1581C23.3335 28.1571 22.5087 28.1576 21.6842 28.1596C20.4783 28.1622 19.5313 29.0803 19.6433 30.3208C19.7053 31.0088 19.9183 31.4797 20.5102 31.8532C20.8402 32.0614 21.1367 32.2087 21.535 32.2076C22.5138 32.2046 23.4892 32.2057 24.4613 32.211C24.4692 32.211 24.477 32.2132 24.4838 32.2174C24.4905 32.2216 24.496 32.2275 24.4996 32.2347L25.1389 33.4853C25.1446 33.4966 25.1411 33.5022 25.1283 33.5022C23.9488 33.5047 22.7695 33.5046 21.5902 33.5018C21.2628 33.5011 21.0134 33.4857 20.842 33.4556Z" fill="#231816"/>
</g>
<path d="M39.2613 17.6092C38.3579 17.6092 37.5525 17.443 36.8451 17.1106C36.142 16.7782 35.5837 16.3201 35.1704 15.7363C34.757 15.1525 34.5418 14.4834 34.5248 13.7292H37.2094C37.2393 14.2363 37.4523 14.6475 37.8486 14.9628C38.2449 15.2782 38.7158 15.4359 39.2613 15.4359C39.6959 15.4359 40.0795 15.34 40.4118 15.1482C40.7485 14.9522 41.0106 14.6816 41.1981 14.3364C41.3898 13.987 41.4857 13.5864 41.4857 13.1347C41.4857 12.6745 41.3877 12.2697 41.1917 11.9202C40.9999 11.5708 40.7336 11.2981 40.3927 11.1021C40.0518 10.906 39.6618 10.8059 39.2229 10.8016C38.8394 10.8016 38.4665 10.8805 38.1043 11.0381C37.7464 11.1958 37.4672 11.411 37.267 11.6837L34.806 11.2427L35.426 4.33927H43.4289V6.60205H37.708L37.3692 9.88117H37.4459C37.676 9.55731 38.0233 9.28884 38.4878 9.07577C38.9523 8.8627 39.4722 8.75617 40.0475 8.75617C40.8358 8.75617 41.539 8.94154 42.1569 9.31228C42.7748 9.68302 43.2627 10.1922 43.6207 10.84C43.9786 11.4834 44.1555 12.2249 44.1512 13.0644C44.1555 13.9465 43.9509 14.7306 43.5376 15.4167C43.1285 16.0985 42.5553 16.6354 41.8181 17.0275C41.0851 17.4153 40.2329 17.6092 39.2613 17.6092ZM54.8387 8.5708C54.7492 8.25972 54.6235 7.98486 54.4616 7.74623C54.2996 7.50333 54.1015 7.29878 53.8671 7.13259C53.637 6.96214 53.3728 6.83216 53.0745 6.74268C52.7805 6.65319 52.4545 6.60844 52.0965 6.60844C51.4275 6.60844 50.8394 6.77464 50.3323 7.10702C49.8295 7.43941 49.4374 7.92307 49.1562 8.55802C48.8749 9.1887 48.7343 9.96 48.7343 10.8719C48.7343 11.7839 48.8728 12.5594 49.1498 13.1986C49.4268 13.8378 49.8188 14.3258 50.3259 14.6624C50.833 14.9948 51.4317 15.161 52.1221 15.161C52.7485 15.161 53.2833 15.0502 53.7265 14.8286C54.1739 14.6028 54.5148 14.2853 54.7492 13.8762C54.9878 13.4671 55.1072 12.9834 55.1072 12.4252L55.6697 12.5083H52.2947V10.4245H57.7726V12.0736C57.7726 13.2242 57.5297 14.2128 57.0439 15.0396C56.5582 15.862 55.8891 16.4969 55.0368 16.9444C54.1846 17.3876 53.2087 17.6092 52.1093 17.6092C50.882 17.6092 49.8039 17.3386 48.8749 16.7974C47.9459 16.2519 47.2215 15.4785 46.7016 14.4771C46.186 13.4714 45.9282 12.2782 45.9282 10.8975C45.9282 9.83643 46.0816 8.8904 46.3884 8.05944C46.6995 7.22421 47.1341 6.51682 47.6924 5.93728C48.2506 5.35773 48.9005 4.91668 49.642 4.61412C50.3834 4.31157 51.1867 4.16029 52.0518 4.16029C52.7932 4.16029 53.4836 4.26895 54.1228 4.48628C54.762 4.69935 55.3287 5.00191 55.8231 5.39395C56.3216 5.786 56.7286 6.25262 57.0439 6.79381C57.3593 7.33074 57.5617 7.92307 57.6512 8.5708H54.8387ZM71.1192 8.10418C71.0681 7.58856 70.8486 7.18799 70.4608 6.90248C70.0731 6.61696 69.5468 6.47421 68.882 6.47421C68.4303 6.47421 68.0489 6.53813 67.7378 6.66597C67.4268 6.78955 67.1881 6.96214 67.0219 7.18373C66.86 7.40532 66.779 7.65674 66.779 7.93799C66.7705 8.17236 66.8195 8.37691 66.926 8.55162C67.0368 8.72634 67.1881 8.87762 67.3799 9.00546C67.5716 9.12904 67.7932 9.2377 68.0447 9.33145C68.2961 9.42094 68.5645 9.49765 68.8501 9.56157L70.0262 9.84282C70.5972 9.97066 71.1214 10.1411 71.5986 10.3542C72.0759 10.5672 72.4893 10.8293 72.8387 11.1404C73.1881 11.4515 73.4587 11.818 73.6505 12.2398C73.8465 12.6617 73.9466 13.1454 73.9509 13.6908C73.9466 14.492 73.7421 15.1866 73.3373 15.7746C72.9367 16.3584 72.3572 16.8123 71.5986 17.1361C70.8444 17.4557 69.9346 17.6155 68.8692 17.6155C67.8124 17.6155 66.892 17.4536 66.1079 17.1297C65.328 16.8059 64.7187 16.3265 64.2797 15.6915C63.8451 15.0523 63.6171 14.2619 63.5958 13.3201H66.2741C66.3039 13.759 66.4296 14.1255 66.6512 14.4195C66.877 14.7093 67.1775 14.9288 67.5525 15.0779C67.9317 15.2228 68.36 15.2952 68.8373 15.2952C69.306 15.2952 69.713 15.2271 70.0582 15.0907C70.4076 14.9543 70.6782 14.7647 70.8699 14.5218C71.0617 14.2789 71.1576 13.9998 71.1576 13.6844C71.1576 13.3904 71.0702 13.1432 70.8955 12.943C70.7251 12.7427 70.4736 12.5722 70.1412 12.4316C69.8131 12.291 69.4104 12.1631 68.9332 12.0481L67.5077 11.6901C66.404 11.4217 65.5326 11.0019 64.8934 10.4309C64.2542 9.85986 63.9367 9.09069 63.941 8.12336C63.9367 7.33074 64.1476 6.63827 64.5738 6.04594C65.0042 5.45361 65.5944 4.99126 66.3444 4.65887C67.0944 4.32648 67.9466 4.16029 68.9012 4.16029C69.8728 4.16029 70.7208 4.32648 71.4452 4.65887C72.1739 4.99126 72.7407 5.45361 73.1455 6.04594C73.5503 6.63827 73.7591 7.32435 73.7719 8.10418H71.1192ZM75.7615 17.4302V7.61199H78.3566V9.34424H78.4717C78.6762 8.76895 79.0171 8.31512 79.4944 7.98273C79.9717 7.65035 80.5427 7.48415 81.2075 7.48415C81.8808 7.48415 82.4539 7.65248 82.9269 7.98912C83.3999 8.32151 83.7153 8.77322 83.873 9.34424H83.9752C84.1755 8.78174 84.5377 8.33216 85.0619 7.99552C85.5903 7.65461 86.2146 7.48415 86.9347 7.48415C87.8509 7.48415 88.5945 7.77606 89.1656 8.35986C89.7409 8.93941 90.0285 9.76185 90.0285 10.8272V17.4302H87.3119V11.3641C87.3119 10.8187 87.167 10.4096 86.8772 10.1369C86.5874 9.86412 86.2252 9.72776 85.7906 9.72776C85.2963 9.72776 84.9106 9.88543 84.6336 10.2008C84.3566 10.5119 84.2181 10.9231 84.2181 11.4344V17.4302H81.5782V11.3066C81.5782 10.8251 81.4397 10.4415 81.1627 10.156C80.89 9.87052 80.5299 9.72776 80.0825 9.72776C79.7799 9.72776 79.5072 9.80447 79.2643 9.95787C79.0257 10.107 78.836 10.318 78.6954 10.5907C78.5548 10.8592 78.4845 11.1745 78.4845 11.5367V17.4302H75.7615ZM94.9791 17.6155C94.3527 17.6155 93.7945 17.5069 93.3044 17.2896C92.8144 17.068 92.4266 16.742 92.1411 16.3116C91.8598 15.8769 91.7192 15.3357 91.7192 14.688C91.7192 14.1425 91.8193 13.6844 92.0196 13.3137C92.2199 12.943 92.4926 12.6447 92.8378 12.4188C93.183 12.193 93.575 12.0225 94.0139 11.9074C94.4571 11.7924 94.9216 11.7114 95.4074 11.6646C95.9784 11.6049 96.4387 11.5495 96.7881 11.4984C97.1375 11.443 97.3911 11.362 97.5487 11.2555C97.7064 11.1489 97.7852 10.9913 97.7852 10.7824V10.7441C97.7852 10.3393 97.6574 10.0261 97.4017 9.80447C97.1503 9.58287 96.7923 9.47208 96.3279 9.47208C95.8378 9.47208 95.4479 9.58074 95.1581 9.79807C94.8683 10.0111 94.6766 10.2796 94.5828 10.6035L92.0644 10.3989C92.1922 9.80233 92.4436 9.28671 92.8186 8.85205C93.1936 8.41313 93.6773 8.07648 94.2696 7.84211C94.8662 7.60347 95.5566 7.48415 96.3406 7.48415C96.8861 7.48415 97.4081 7.54807 97.9067 7.67591C98.4095 7.80376 98.8548 8.00191 99.2426 8.27037C99.6347 8.53884 99.9436 8.88401 100.169 9.30589C100.395 9.7235 100.508 10.2242 100.508 10.808V17.4302H97.9259V16.0687H97.8492C97.6915 16.3755 97.4806 16.6461 97.2164 16.8805C96.9521 17.1106 96.6347 17.2917 96.2639 17.4238C95.8932 17.5516 95.4649 17.6155 94.9791 17.6155ZM95.759 15.7363C96.1595 15.7363 96.5132 15.6574 96.82 15.4998C97.1269 15.3378 97.3676 15.1205 97.5423 14.8478C97.7171 14.5751 97.8044 14.2661 97.8044 13.9209V12.879C97.7192 12.9344 97.602 12.9856 97.4529 13.0324C97.308 13.0751 97.1439 13.1155 96.9607 13.1539C96.7774 13.188 96.5942 13.2199 96.411 13.2498C96.2277 13.2753 96.0615 13.2988 95.9124 13.3201C95.5928 13.367 95.3137 13.4415 95.075 13.5438C94.8364 13.6461 94.651 13.7846 94.5189 13.9593C94.3868 14.1297 94.3208 14.3428 94.3208 14.5985C94.3208 14.9692 94.455 15.2526 94.7235 15.4486C94.9962 15.6404 95.3414 15.7363 95.759 15.7363ZM102.621 17.4302V7.61199H105.261V9.32506H105.363C105.542 8.71569 105.842 8.25546 106.264 7.94438C106.686 7.62904 107.172 7.47137 107.722 7.47137C107.858 7.47137 108.005 7.47989 108.163 7.49694C108.32 7.51398 108.459 7.53742 108.578 7.56725V9.98344C108.45 9.94509 108.274 9.911 108.048 9.88117C107.822 9.85134 107.615 9.83643 107.428 9.83643C107.027 9.83643 106.669 9.92378 106.354 10.0985C106.043 10.269 105.796 10.5076 105.612 10.8144C105.433 11.1212 105.344 11.4749 105.344 11.8755V17.4302H102.621ZM115.701 7.61199V9.65745H109.788V7.61199H115.701ZM111.13 5.25972H113.853V14.4131C113.853 14.6646 113.892 14.8606 113.968 15.0012C114.045 15.1376 114.152 15.2334 114.288 15.2888C114.429 15.3442 114.59 15.3719 114.774 15.3719C114.902 15.3719 115.029 15.3613 115.157 15.34C115.285 15.3144 115.383 15.2952 115.451 15.2824L115.88 17.3087C115.743 17.3513 115.551 17.4003 115.304 17.4557C115.057 17.5154 114.757 17.5516 114.403 17.5644C113.747 17.59 113.171 17.5026 112.677 17.3023C112.187 17.1021 111.806 16.791 111.533 16.3691C111.26 15.9472 111.126 15.4146 111.13 14.7711V5.25972ZM121.691 17.4302V4.33927H126.856C127.849 4.33927 128.695 4.5289 129.394 4.90816C130.093 5.28316 130.625 5.80518 130.992 6.47421C131.363 7.13898 131.548 7.90603 131.548 8.77535C131.548 9.64466 131.361 10.4117 130.986 11.0765C130.611 11.7413 130.067 12.259 129.356 12.6297C128.648 13.0005 127.792 13.1859 126.786 13.1859H123.494V10.9678H126.339C126.871 10.9678 127.31 10.8762 127.655 10.693C128.005 10.5055 128.265 10.2476 128.435 9.91952C128.61 9.58714 128.697 9.20574 128.697 8.77535C128.697 8.34069 128.61 7.96143 128.435 7.63756C128.265 7.30944 128.005 7.05589 127.655 6.87691C127.306 6.69367 126.863 6.60205 126.326 6.60205H124.459V17.4302H121.691ZM137.573 17.6219C136.58 17.6219 135.721 17.411 134.997 16.9891C134.276 16.563 133.72 15.9707 133.328 15.2121C132.936 14.4494 132.74 13.5651 132.74 12.5594C132.74 11.5452 132.936 10.6589 133.328 9.90035C133.72 9.13756 134.276 8.54523 134.997 8.12336C135.721 7.69722 136.58 7.48415 137.573 7.48415C138.565 7.48415 139.422 7.69722 140.142 8.12336C140.867 8.54523 141.425 9.13756 141.817 9.90035C142.209 10.6589 142.405 11.5452 142.405 12.5594C142.405 13.5651 142.209 14.4494 141.817 15.2121C141.425 15.9707 140.867 16.563 140.142 16.9891C139.422 17.411 138.565 17.6219 137.573 17.6219ZM137.585 15.5126C138.037 15.5126 138.414 15.3847 138.717 15.129C139.019 14.8691 139.247 14.5154 139.401 14.068C139.558 13.6205 139.637 13.1113 139.637 12.5403C139.637 11.9692 139.558 11.46 139.401 11.0126C139.247 10.5651 139.019 10.2114 138.717 9.95148C138.414 9.69154 138.037 9.56157 137.585 9.56157C137.129 9.56157 136.746 9.69154 136.435 9.95148C136.128 10.2114 135.896 10.5651 135.738 11.0126C135.585 11.46 135.508 11.9692 135.508 12.5403C135.508 13.1113 135.585 13.6205 135.738 14.068C135.896 14.5154 136.128 14.8691 136.435 15.129C136.746 15.3847 137.129 15.5126 137.585 15.5126ZM144.176 17.4302V7.61199H146.815V9.32506H146.918C147.097 8.71569 147.397 8.25546 147.819 7.94438C148.241 7.62904 148.727 7.47137 149.276 7.47137C149.413 7.47137 149.56 7.47989 149.717 7.49694C149.875 7.51398 150.014 7.53742 150.133 7.56725V9.98344C150.005 9.94509 149.828 9.911 149.602 9.88117C149.377 9.85134 149.17 9.83643 148.982 9.83643C148.582 9.83643 148.224 9.92378 147.908 10.0985C147.597 10.269 147.35 10.5076 147.167 10.8144C146.988 11.1212 146.899 11.4749 146.899 11.8755V17.4302H144.176ZM157.255 7.61199V9.65745H151.343V7.61199H157.255ZM152.685 5.25972H155.408V14.4131C155.408 14.6646 155.446 14.8606 155.523 15.0012C155.6 15.1376 155.706 15.2334 155.843 15.2888C155.983 15.3442 156.145 15.3719 156.328 15.3719C156.456 15.3719 156.584 15.3613 156.712 15.34C156.84 15.3144 156.938 15.2952 157.006 15.2824L157.434 17.3087C157.298 17.3513 157.106 17.4003 156.859 17.4557C156.612 17.5154 156.311 17.5516 155.958 17.5644C155.301 17.59 154.726 17.5026 154.232 17.3023C153.742 17.1021 153.36 16.791 153.088 16.3691C152.815 15.9472 152.681 15.4146 152.685 14.7711V5.25972Z" fill="#121212"/>
<path d="M36.3469 21.3338L37.3429 21.6578C36.6589 23.0258 35.5789 24.3578 34.4869 25.2098C34.3669 25.0058 34.0309 24.5138 33.8149 24.3098C34.8109 23.6018 35.7829 22.4978 36.3469 21.3338ZM36.1429 22.7738H44.4109V23.7818H35.8189L36.1429 22.7738ZM34.4509 25.5938H44.5069V26.6138H34.4509V25.5938ZM34.0669 28.4378H44.7589V29.4578H34.0669V28.4378ZM37.9189 24.3698H38.8789V28.9898H37.9189V24.3698ZM35.8309 24.3698H36.8509V29.0258H35.8309V24.3698ZM40.0669 24.3698H41.0269V29.0258H40.0669V24.3698ZM42.1789 24.3698H43.2229V29.0258H42.1789V24.3698ZM37.4509 30.2378L38.4949 30.1298C38.6509 30.8498 38.7829 31.7858 38.7949 32.3378L37.6789 32.5058C37.6789 31.9298 37.5829 30.9698 37.4509 30.2378ZM39.9109 30.2138L40.9669 30.0338C41.2789 30.7298 41.6029 31.6658 41.7109 32.2418L40.5829 32.4698C40.4869 31.8938 40.1989 30.9458 39.9109 30.2138ZM42.3709 30.1778L43.4149 29.7698C43.8949 30.4898 44.4709 31.4858 44.7469 32.0978L43.6309 32.5898C43.4029 31.9658 42.8389 30.9458 42.3709 30.1778ZM35.4109 29.8298L36.5029 30.1178C36.1789 30.9338 35.6629 31.9538 35.2309 32.6138L34.1269 32.1698C34.5589 31.5938 35.0869 30.6458 35.4109 29.8298ZM51.3109 21.4778H52.5949C52.5349 23.7578 52.4509 29.7218 47.3869 32.5538C47.1829 32.2538 46.8109 31.8938 46.4509 31.6418C51.4069 29.0738 51.2629 23.4098 51.3109 21.4778ZM52.4749 22.9418C52.5709 23.8538 53.0149 29.4458 57.6589 31.5218C57.3229 31.7858 56.9989 32.1698 56.8309 32.4938C52.0069 30.2138 51.5509 24.1778 51.3829 23.0618L52.4749 22.9418ZM67.3669 22.1138L68.1829 21.5498C68.7709 22.0418 69.4669 22.7258 69.8029 23.2058L68.9269 23.8178C68.6269 23.3378 67.9429 22.6178 67.3669 22.1138ZM59.2189 24.0578H70.0549V25.0058H59.2189V24.0578ZM59.7589 22.3418H64.9789V23.2298H59.7589V22.3418ZM59.5429 25.6778H65.2069V26.5058H59.5429V25.6778ZM59.3749 30.5978H65.2189V31.4498H59.3749V30.5978ZM61.8349 21.4418H62.9149V24.8978H61.8349V21.4418ZM60.6229 28.8338V29.4218H64.1269V28.8338H60.6229ZM60.6229 27.6818V28.2578H64.1269V27.6818H60.6229ZM59.7949 27.0698H64.9789V30.0218H59.7949V27.0698ZM61.9309 27.4418H62.7829V29.8058H62.8669V32.5898H61.8589V29.8058H61.9309V27.4418ZM61.8469 24.9818H62.8789V27.2858H61.8469V24.9818ZM65.6029 21.4538H66.7429C66.6589 26.9258 67.4869 31.4738 68.8189 31.4738C69.1189 31.4738 69.2389 30.8978 69.3109 29.4578C69.5509 29.6978 69.9349 29.9498 70.2229 30.0458C70.0549 32.0378 69.6829 32.5778 68.7229 32.5778C66.2989 32.5778 65.6269 27.3218 65.6029 21.4538ZM68.5789 25.5938L69.5869 25.9178C68.6869 28.7618 67.1269 31.1258 64.9189 32.6018C64.7509 32.3258 64.4149 31.9658 64.1389 31.7378C66.2389 30.4778 67.7629 28.2458 68.5789 25.5938ZM78.3469 30.6698L79.0789 29.8778C80.4229 30.4658 81.9229 31.2218 82.8109 31.7618L81.8869 32.6018C81.0709 32.0378 79.6669 31.2698 78.3469 30.6698ZM71.7949 28.9418H82.6669V29.9618H71.7949V28.9418ZM74.1229 23.7938H80.2309V24.6338H74.1229V23.7938ZM74.1229 25.4858H80.2309V26.3138H74.1229V25.4858ZM74.1229 27.1898H80.2309V28.0178H74.1229V27.1898ZM75.0709 29.9378L76.1149 30.6338C75.1549 31.3658 73.6789 32.1338 72.4669 32.5898C72.2749 32.3618 71.9029 31.9898 71.6389 31.7738C72.8509 31.3418 74.3269 30.5618 75.0709 29.9378ZM73.7029 22.0178H80.8549V29.4218H79.7149V22.9298H74.7949V29.4218H73.7029V22.0178ZM86.0629 27.5738H93.6589V32.5658H92.4949V28.4858H87.1669V32.5778H86.0629V27.5738ZM86.7109 29.4098H92.9029V30.2618H86.7109V29.4098ZM85.7149 22.4018H89.5429V23.3018H85.7149V22.4018ZM84.3709 24.2858H89.8429V25.1978H84.3709V24.2858ZM86.7109 31.2338H92.9029V32.1578H86.7109V31.2338ZM86.7829 22.6898H87.8629V23.9378C87.8629 25.1258 87.4669 26.7578 84.9709 27.8858C84.8149 27.6578 84.4909 27.3098 84.2389 27.1178C86.5909 26.2058 86.7829 24.8378 86.7829 23.9258V22.6898ZM85.6669 21.3938L86.6749 21.5978C86.3749 22.6418 85.8229 23.6618 85.2229 24.3218C85.0189 24.1658 84.5749 23.8898 84.3229 23.7818C84.9349 23.1818 85.4029 22.2938 85.6669 21.3938ZM87.6109 25.2698C88.0429 25.4858 89.4589 26.3258 89.8069 26.5658L89.0029 27.3098C88.5469 26.9258 87.3829 26.0858 86.8549 25.7498L87.6109 25.2698ZM91.3549 23.3858V25.7138H93.5629V23.3858H91.3549ZM90.2989 22.3778H94.6789V26.7338H90.2989V22.3778ZM97.3429 22.0178H102.023V22.7258H97.3429V22.0178ZM97.5829 23.2058H101.855V23.9138H97.5829V23.2058ZM99.1789 21.4538H100.223V25.6898H99.1789V21.4538ZM102.479 22.0178H107.435V22.7258H102.479V22.0178ZM102.431 24.4178H107.627V25.1258H102.431V24.4178ZM97.2349 24.4178H102.155V25.1258H97.2349V24.4178ZM102.743 23.2058H107.219V23.9018H102.743V23.2058ZM104.339 21.4538H105.407V25.6898H104.339V21.4538ZM99.9469 29.6858H101.075V31.1258C101.075 31.4378 101.171 31.4738 101.795 31.4738C102.059 31.4738 103.379 31.4738 103.751 31.4738C104.219 31.4738 104.315 31.3538 104.363 30.4658C104.591 30.6338 105.059 30.7778 105.359 30.8498C105.227 32.1458 104.903 32.4578 103.859 32.4578C103.559 32.4578 101.963 32.4578 101.675 32.4578C100.283 32.4578 99.9469 32.1698 99.9469 31.1378V29.6858ZM101.195 29.5298L101.927 28.9058C102.575 29.2058 103.343 29.7098 103.727 30.1298L102.959 30.8138C102.599 30.3938 101.855 29.8658 101.195 29.5298ZM105.035 30.1418L105.947 29.6018C106.751 30.1898 107.627 31.0538 108.011 31.7138L107.027 32.3018C106.691 31.6538 105.851 30.7538 105.035 30.1418ZM98.3989 29.7098L99.3829 30.0698C99.0469 30.9218 98.5549 31.7978 97.7389 32.3498L96.8269 31.7018C97.5709 31.2458 98.1109 30.4778 98.3989 29.7098ZM98.1109 25.8578H106.595V29.2298H98.0389V28.5098H105.491V26.5778H98.1109V25.8578ZM97.1269 27.1898H107.747V27.8858H97.1269V27.1898ZM115.151 25.6178H119.783V26.2178H115.151V25.6178ZM115.151 26.7938H119.807V27.3938H115.151V26.7938ZM114.791 27.9938H120.287V28.7138H114.791V27.9938ZM113.267 23.2898L114.203 23.5658C113.591 24.8018 112.655 26.0258 111.755 26.8178C111.611 26.6498 111.251 26.2658 111.047 26.0978C111.911 25.4018 112.763 24.3458 113.267 23.2898ZM115.211 23.2538L116.147 23.5178C115.643 24.6698 114.851 25.8458 114.095 26.6018C113.927 26.4338 113.543 26.1098 113.327 25.9658C114.083 25.2938 114.791 24.2738 115.211 23.2538ZM117.179 24.6698H118.139V28.2578H117.179V24.6698ZM113.951 29.7578H114.983V31.2698C114.983 31.5458 115.067 31.5938 115.523 31.5938C115.739 31.5938 116.783 31.5938 117.059 31.5938C117.431 31.5938 117.503 31.4738 117.539 30.6218C117.755 30.7778 118.187 30.9218 118.463 30.9938C118.355 32.2058 118.055 32.5058 117.167 32.5058C116.927 32.5058 115.643 32.5058 115.403 32.5058C114.227 32.5058 113.951 32.2298 113.951 31.2818V29.7578ZM114.995 29.4218L115.655 28.7978C116.339 29.1098 117.191 29.6018 117.623 29.9858L116.927 30.6698C116.519 30.2858 115.691 29.7458 114.995 29.4218ZM118.007 29.9498L118.847 29.5418C119.519 30.2258 120.239 31.1738 120.527 31.8458L119.627 32.3018C119.351 31.6538 118.667 30.6578 118.007 29.9498ZM112.451 29.6738L113.363 30.0098C113.099 30.8498 112.691 31.7618 111.995 32.3378L111.131 31.7858C111.755 31.2818 112.211 30.4418 112.451 29.6738ZM115.391 24.3578H120.107V25.0658H114.887L115.391 24.3578ZM114.563 25.1978L115.511 24.4058V29.0738H114.563V25.1978ZM110.879 22.3418H120.467V23.2778H110.879V22.3418ZM110.267 22.3418H111.311V25.9178C111.311 27.8258 111.155 30.7178 110.183 32.6018C110.003 32.3978 109.547 32.0498 109.319 31.9418C110.195 30.1898 110.267 27.6938 110.267 25.9178V22.3418ZM112.511 25.3298L113.459 24.3818L113.471 24.3938V29.0738H112.511V25.3298ZM114.515 21.5378L115.511 21.2258C115.847 21.6698 116.195 22.2698 116.339 22.6898L115.295 23.0498C115.163 22.6298 114.839 21.9938 114.515 21.5378ZM116.783 23.5658L117.587 23.2298C117.863 23.5418 118.151 23.9498 118.295 24.2258L117.443 24.6098C117.323 24.3098 117.047 23.8778 116.783 23.5658ZM124.043 22.2698H131.627V23.3498H124.043V22.2698ZM124.043 25.0538H131.627V26.1218H124.043V25.0538ZM123.995 27.9098H131.663V28.9778H123.995V27.9098ZM123.395 22.2698H124.511V26.6138C124.511 28.4738 124.295 31.0538 122.843 32.6498C122.663 32.4338 122.207 32.0498 121.955 31.9058C123.275 30.4298 123.395 28.2938 123.395 26.6018V22.2698ZM131.207 22.2698H132.335V31.1498C132.335 31.8218 132.179 32.1458 131.735 32.3258C131.291 32.5058 130.583 32.5298 129.467 32.5178C129.419 32.2178 129.239 31.7258 129.083 31.4258C129.863 31.4618 130.667 31.4498 130.895 31.4498C131.123 31.4378 131.207 31.3658 131.207 31.1498V22.2698ZM127.127 22.6898H128.279V32.4578H127.127V22.6898ZM137.423 29.1578L138.563 29.5778C137.855 30.5138 136.787 31.4978 135.887 32.1098C135.659 31.9058 135.191 31.5338 134.903 31.3658C135.827 30.8258 136.823 29.9738 137.423 29.1578ZM141.767 29.6258L142.679 29.0258C143.627 29.6978 144.815 30.6698 145.427 31.3298L144.431 32.0018C143.879 31.3538 142.715 30.3338 141.767 29.6258ZM139.727 28.0778H140.879V31.2938C140.879 31.8938 140.759 32.1938 140.303 32.3738C139.859 32.5538 139.211 32.5658 138.335 32.5658C138.275 32.2298 138.083 31.7498 137.903 31.4498C138.587 31.4738 139.271 31.4738 139.475 31.4618C139.679 31.4498 139.727 31.4138 139.727 31.2698V28.0778ZM142.751 21.4178L143.591 22.3058C141.455 23.2058 138.287 23.8658 135.491 24.3098C135.455 24.0218 135.287 23.6018 135.167 23.3498C137.915 22.9058 140.975 22.2098 142.751 21.4178ZM135.803 29.1458C135.755 28.9178 135.587 28.3778 135.467 28.0778C135.887 28.0298 136.391 27.8378 137.123 27.4898C137.939 27.1298 140.483 25.8098 142.415 24.2978L143.267 25.0538C141.131 26.6018 138.791 27.7898 136.571 28.6538V28.6898C136.571 28.6898 135.803 28.9418 135.803 29.1458ZM135.803 29.1458L135.767 28.2938L136.499 27.8978L144.059 27.3818C144.023 27.6818 144.023 28.1258 144.035 28.3538C137.051 28.8818 136.307 28.9538 135.803 29.1458ZM136.391 26.5778C136.343 26.3618 136.187 25.8098 136.067 25.5218C136.355 25.4738 136.655 25.3538 137.063 25.1378C137.495 24.9218 138.851 24.1178 139.847 23.2178L140.843 23.8538C139.667 24.7538 138.359 25.5338 137.111 26.0618V26.0858C137.111 26.0858 136.391 26.3738 136.391 26.5778ZM136.391 26.5778L136.379 25.7858L136.991 25.4498L141.479 25.2338C141.419 25.5098 141.359 25.9298 141.347 26.1458C137.267 26.3978 136.739 26.4578 136.391 26.5778ZM142.067 26.4098L143.003 25.9418C143.879 26.7818 144.899 27.8978 145.415 28.6178L144.443 29.2058C143.951 28.4738 142.919 27.2738 142.067 26.4098ZM155.699 24.7418L156.623 24.3338C157.247 25.2578 157.991 26.4818 158.303 27.2738L157.295 27.7538C157.007 26.9738 156.311 25.6898 155.699 24.7418ZM151.763 22.9058H158.207V23.9738H151.763V22.9058ZM155.099 26.6378H156.167V30.9698C156.167 31.3178 156.203 31.3658 156.431 31.3658C156.539 31.3658 156.995 31.3658 157.127 31.3658C157.367 31.3658 157.403 31.1498 157.427 29.7458C157.667 29.9378 158.111 30.1058 158.411 30.1898C158.315 31.9058 158.051 32.3738 157.235 32.3738C157.043 32.3738 156.443 32.3738 156.263 32.3738C155.315 32.3738 155.099 32.0378 155.099 30.9818V26.6378ZM153.095 26.8898H154.163C154.079 29.7818 153.779 31.5818 151.667 32.6378C151.535 32.3498 151.223 31.9538 150.971 31.7498C152.831 30.8858 153.023 29.4098 153.095 26.8898ZM152.051 27.5018L152.015 26.6378L152.627 26.2658L157.223 25.8218C157.247 26.1098 157.295 26.5418 157.343 26.7698C152.975 27.2618 152.411 27.3338 152.051 27.5018ZM152.051 27.5018C151.991 27.2618 151.799 26.6978 151.667 26.3858C151.931 26.3138 152.171 26.0018 152.495 25.5098C152.843 25.0298 153.887 23.1818 154.499 21.4178L155.735 21.7538C154.931 23.6498 153.839 25.5458 152.831 26.8538V26.8778C152.831 26.8778 152.051 27.2738 152.051 27.5018ZM150.083 26.2538L150.875 25.9658C151.247 26.7338 151.607 27.7298 151.727 28.3658L150.887 28.7018C150.767 28.0658 150.443 27.0338 150.083 26.2538ZM148.991 29.3738L149.819 29.1818C149.963 29.9738 150.095 31.0058 150.131 31.6898L149.267 31.9058C149.243 31.2218 149.123 30.1778 148.991 29.3738ZM147.671 29.2538L148.571 29.4098C148.451 30.4658 148.235 31.6058 147.995 32.3378C147.803 32.2298 147.359 32.0858 147.131 32.0258C147.419 31.3058 147.575 30.2258 147.671 29.2538ZM147.491 26.0618C147.431 25.8338 147.263 25.3178 147.143 25.0298C147.359 24.9698 147.563 24.7418 147.815 24.3698C148.067 24.0338 148.871 22.6658 149.339 21.3698L150.371 21.8138C149.771 23.1338 148.943 24.5138 148.163 25.4738V25.4978C148.163 25.4978 147.491 25.8458 147.491 26.0618ZM147.491 26.0618L147.479 25.3058L147.935 25.0058L150.023 24.8378C149.975 25.1018 149.927 25.4738 149.927 25.6898C148.043 25.8818 147.695 25.9538 147.491 26.0618ZM147.575 28.7978C147.527 28.5818 147.359 28.0538 147.227 27.7658C147.515 27.6938 147.767 27.4058 148.139 26.9498C148.547 26.5178 149.795 24.7778 150.551 23.1098L151.511 23.6858C150.599 25.3418 149.423 27.0218 148.247 28.2218V28.2458C148.247 28.2458 147.575 28.5818 147.575 28.7978ZM147.575 28.7978L147.527 28.0058L147.995 27.6818L151.091 27.2018C151.055 27.4658 151.043 27.8498 151.067 28.0658C148.235 28.5458 147.839 28.6658 147.575 28.7978ZM150.311 29.1098L151.091 28.8458C151.343 29.5178 151.619 30.3698 151.739 30.9338L150.911 31.2218C150.815 30.6578 150.551 29.7818 150.311 29.1098Z" fill="#121212"/>
<defs>
<clipPath id="clip0_1945_36509">
<rect width="25.4191" height="32.9907" fill="white" transform="translate(0 0.504639)"/>
</clipPath>
</defs>
</svg>
