<svg width="24" height="24" viewBox="0 0 24 24" fill="none" xmlns="http://www.w3.org/2000/svg">
<mask id="mask0_464_6471" style="mask-type:alpha" maskUnits="userSpaceOnUse" x="0" y="0" width="24" height="24">
<rect width="24" height="24" fill="#D9D9D9"/>
</mask>
<g mask="url(#mask0_464_6471)">
<path d="M3.4808 13.2499L10.75 2.7981V13.2499H3.4808ZM12.8462 13.2499C13.0334 12.7705 13.2308 11.9746 13.4385 10.8624C13.6462 9.75028 13.75 8.62946 13.75 7.49997C13.75 6.31921 13.6487 5.15158 13.4462 3.9971C13.2436 2.84262 13.0468 1.96217 12.8558 1.35577C13.8404 1.73271 14.7968 2.31668 15.725 3.1077C16.6532 3.89872 17.4814 4.82403 18.2096 5.88365C18.9378 6.94327 19.532 8.10256 19.9923 9.36152C20.4526 10.6205 20.7019 11.9166 20.7404 13.2499H12.8462ZM9 19.0577C8.43847 19.0577 7.89937 18.9384 7.3827 18.7C6.86603 18.4615 6.40513 18.1256 6 17.6923C5.80513 17.8974 5.59103 18.0939 5.3577 18.2817C5.12437 18.4695 4.87629 18.6173 4.61348 18.725C4.05579 18.3045 3.58079 17.7958 3.18848 17.199C2.79618 16.6022 2.509 15.9525 2.32695 15.25H21.673C21.491 15.9525 21.2038 16.6022 20.8115 17.199C20.4192 17.7958 19.9442 18.3045 19.3865 18.725C19.1237 18.6173 18.8756 18.4695 18.6423 18.2817C18.409 18.0939 18.1949 17.8974 18 17.6923C17.5846 18.1256 17.1211 18.4615 16.6096 18.7C16.0981 18.9384 15.5615 19.0577 15 19.0577C14.4385 19.0577 13.8978 18.9384 13.3779 18.7C12.858 18.4615 12.3987 18.1224 12 17.6827C11.6013 18.1224 11.142 18.4615 10.6221 18.7C10.1022 18.9384 9.56153 19.0577 9 19.0577ZM2.25 22.75V21.25H3C3.53333 21.25 4.05257 21.1667 4.5577 21C5.06282 20.8333 5.54358 20.5929 6 20.2788C6.46282 20.5929 6.94519 20.8308 7.44713 20.9923C7.94904 21.1538 8.46667 21.2346 9 21.2346C9.53333 21.2346 10.0484 21.1538 10.5452 20.9923C11.042 20.8308 11.5269 20.5929 12 20.2788C12.4628 20.5929 12.9452 20.8308 13.4471 20.9923C13.949 21.1538 14.4667 21.2346 15 21.2346C15.5333 21.2346 16.05 21.1538 16.55 20.9923C17.05 20.8308 17.5333 20.5929 18 20.2788C18.4731 20.5929 18.958 20.8333 19.4548 21C19.9516 21.1667 20.4667 21.25 21 21.25H21.75V22.75H21C20.5026 22.75 20.0039 22.6859 19.5039 22.5576C19.0039 22.4294 18.5026 22.2339 18 21.9711C17.4974 22.2339 16.9962 22.4294 16.4962 22.5576C15.9962 22.6859 15.4974 22.75 15 22.75C14.5026 22.75 14.0038 22.6859 13.5038 22.5576C13.0038 22.4294 12.5026 22.2339 12 21.9711C11.4974 22.2339 10.9962 22.4294 10.4962 22.5576C9.99615 22.6859 9.49743 22.75 9 22.75C8.50257 22.75 8.00385 22.6859 7.50385 22.5576C7.00385 22.4294 6.50257 22.2339 6 21.9711C5.49743 22.2339 4.99615 22.4294 4.49615 22.5576C3.99615 22.6859 3.49743 22.75 3 22.75H2.25Z" fill="#1C1B1F"/>
</g>
</svg>
