<svg width="48" height="48" viewBox="0 0 48 48" fill="none"
    xmlns="http://www.w3.org/2000/svg">
    <g filter="url(#filter0_b_464_5921)">
        <path fill-rule="evenodd" clip-rule="evenodd" d="M13.1814 32.6459V33.0435L16.5726 32.7992V33.2585H18.6074V34.8589H17.6491L16.7341 36.287C16.1768 36.2533 15.139 36.2673 14.3166 36.2783H14.3165H14.3165H14.3163H14.3162C13.9758 36.2829 13.6722 36.287 13.455 36.287C13.2179 36.287 12.6924 36.9296 12.6924 36.9296C12.3365 37.001 11.4418 37.1867 10.7097 37.358C9.97764 37.5294 9.38792 38.2387 9.18457 38.5719L8.26948 38.8575C7.78143 39.4859 8.06612 39.881 8.26948 40H29.5453V38.8079L31.9821 39.3646H39.1667C39.627 39.3646 40.0001 38.9915 40.0001 38.5313V37.2704C40.0001 36.8101 39.627 36.437 39.1667 36.437H34.999V31.2823L36.1061 31.1897V30.2608C35.7059 30.111 35.336 29.7618 34.999 29.2702V9.0236C35.0827 8.81305 35.1687 8.60421 35.257 8.39752L34.8325 8L32.5283 8.03371C19.7211 8.22109 10.3388 20.1568 13.1814 32.6459ZM34.5347 10.2739C33.3181 13.7817 32.7098 17.5092 32.7098 19.5279C32.7098 21.4823 33.0991 24.3129 33.8058 26.588L33.9151 26.2809L34.5347 10.2739ZM31.0903 31.6094L20.477 32.4973H29.3611L31.0903 31.6094ZM31.7636 31.553L33.9151 31.373V32.4973H29.9247L31.7636 31.553ZM33.9151 35.461V36.437H28.6377V36.4493L27.7914 36.0014H18.9455L18.8784 35.634V33.2585H29.3948L33.9151 35.461ZM33.9151 33.2585V35.0831L30.0054 33.2585H33.9151Z" fill="black"/>
    </g>
    <defs>
        <filter id="filter0_b_464_5921" x="-16" y="-16" width="80" height="80" filterUnits="userSpaceOnUse" color-interpolation-filters="sRGB">
            <feFlood flood-opacity="0" result="BackgroundImageFix"/>
            <feGaussianBlur in="BackgroundImageFix" stdDeviation="8"/>
            <feComposite in2="SourceAlpha" operator="in" result="effect1_backgroundBlur_464_5921"/>
            <feBlend mode="normal" in="SourceGraphic" in2="effect1_backgroundBlur_464_5921" result="shape"/>
        </filter>
    </defs>
</svg>
